<svg version="1.1" viewBox="0.0 0.0 960.0 960.0" fill="none" stroke="none" stroke-linecap="square" stroke-miterlimit="10" xmlns:xlink="http://www.w3.org/1999/xlink" xmlns="http://www.w3.org/2000/svg"><clipPath id="p.0"><path d="m0 0l960.0 0l0 960.0l-960.0 0l0 -960.0z" clip-rule="nonzero"/></clipPath><g clip-path="url(#p.0)"><path fill="#000000" fill-opacity="0.0" d="m0 0l960.0 0l0 960.0l-960.0 0z" fill-rule="evenodd"/><path fill="#000000" d="m70.59469 43.771652l867.1608 688.702l-916.8972 183.75671z" fill-rule="evenodd"/><path stroke="#000000" stroke-width="12.0" stroke-linejoin="round" stroke-linecap="butt" d="m70.59469 43.771652l867.1608 688.702l-916.8972 183.75671z" fill-rule="evenodd"/><path fill="#cfe2f3" d="m80.86614 304.25198l505.3858 0l0 -175.74805l351.4961 351.49606l-351.4961 351.49603l0 -175.74799l-505.3858 0z" fill-rule="evenodd"/><path stroke="#000000" stroke-width="12.0" stroke-linejoin="round" stroke-linecap="butt" d="m80.86614 304.25198l505.3858 0l0 -175.74805l351.4961 351.49606l-351.4961 351.49603l0 -175.74799l-505.3858 0z" fill-rule="evenodd"/><path fill="#000000" fill-opacity="0.0" d="m53.672012 340.81635l841.54333 0l0 277.95276l-841.54333 0z" fill-rule="evenodd"/><path fill="#000000" d="m276.57907 462.46008q4.90625 0 7.140625 2.140625q2.25 2.125 2.25 5.53125q0 5.546875 -3.3125 9.828125q-3.296875 4.265625 -10.34375 4.46875q-17.062515 0.421875 -30.29689 -2.5625q-15.140625 31.796875 -36.578125 52.8125q-21.4375 21.0 -42.984375 21.0q-22.1875 0 -33.078125 -25.8125q-10.875 -25.8125 -10.875 -69.75q0 -37.546875 5.34375 -67.421875q1.921875 -11.09375 5.4375 -15.03125q3.515625 -3.953125 12.046875 -3.953125q14.078125 0 14.078125 12.15625q0 1.28125 -0.421875 4.703125q-6.40625 38.390625 -6.40625 69.546875q0 32.640625 5.4375 49.59375q5.453125 16.953125 16.328125 16.953125q11.09375 0 24.109375 -15.359375q13.015625 -15.359375 23.890625 -38.609375q-13.015625 -8.109375 -19.625 -21.015625q-6.609375 -12.90625 -6.609375 -29.75q0 -16.859375 5.21875 -28.484375q5.234375 -11.625 14.296875 -17.375q9.0625 -5.765625 20.15625 -5.765625q13.65625 0 21.65625 9.8125q8.000015 9.8125 8.000015 26.875q0 24.53125 -10.67189 53.546875q11.312515 1.921875 25.812515 1.921875zm-62.92189 -42.03125q0 20.90625 13.4375 30.9375q8.3125 -23.890625 8.3125 -39.46875q0 -8.953125 -2.34375 -13.109375q-2.34375 -4.171875 -6.40625 -4.171875q-5.75 0 -9.375 6.71875q-3.625 6.71875 -3.625 19.09375zm69.32979 135.25q-13.234375 0 -21.125 -9.59375q-7.8906403 -9.609375 -7.8906403 -25.171875q0 -17.0625 7.8906403 -32.3125q7.890625 -15.265625 21.0 -24.546875q13.125 -9.28125 27.859375 -9.28125q4.6875 0 6.28125 1.8125q1.609375 1.8125 2.671875 6.515625q4.484375 -0.859375 9.390625 -0.859375q10.453125 0 10.453125 7.46875q0 4.484375 -3.203125 21.328125q-4.90625 24.546875 -4.90625 34.140625q0 3.203125 1.59375 5.125q1.609375 1.90625 4.171875 1.90625q4.046875 0 9.796875 -5.21875q5.765625 -5.234375 15.578125 -16.953125q2.5625 -3.0 5.765625 -3.0q2.765625 0 4.359375 2.5625q1.609375 2.5625 1.609375 7.046875q0 8.53125 -4.046875 13.21875q-8.75 10.890625 -18.5625 18.359375q-9.8125 7.453125 -18.984375 7.453125q-7.046875 0 -12.921875 -4.796875q-5.859375 -4.796875 -8.84375 -13.125q-11.09375 17.921875 -27.9375 17.921875zm7.671875 -21.546875q4.703125 0 8.96875 -5.546875q4.265625 -5.546875 6.1875 -14.71875l7.890625 -39.25q-8.96875 0.21875 -16.546875 6.734375q-7.5625 6.5 -12.046875 17.171875q-4.484375 10.65625 -4.484375 22.59375q0 6.625 2.671875 9.828125q2.671875 3.1875 7.359375 3.1875zm81.4986 21.546875q-8.109375 0 -11.421875 -8.53125q-3.296875 -8.53125 -3.296875 -27.296875q0 -27.734375 7.890625 -52.703125q1.921875 -6.1875 6.28125 -9.0625q4.375 -2.875 12.28125 -2.875q4.265625 0 5.96875 1.0625q1.703125 1.0625 1.703125 4.046875q0 3.421875 -3.203125 15.359375q-2.125 8.546875 -3.40625 14.953125q-1.28125 6.390625 -2.140625 15.765625q7.046875 -18.34375 15.78125 -29.859375q8.75 -11.515625 17.171875 -16.421875q8.4375 -4.90625 15.484375 -4.90625q13.859375 0 13.859375 13.859375q0 8.328125 -4.6875 30.078125q-4.0625 18.5625 -4.0625 24.53125q0 8.53125 6.1875 8.53125q4.265625 0 10.125 -5.21875q5.875 -5.234375 15.6875 -16.953125q2.5625 -3.0 5.765625 -3.0q2.765625 0 4.359375 2.5625q1.609375 2.5625 1.609375 7.046875q0 8.53125 -4.046875 13.21875q-9.171875 11.3125 -19.734375 18.5625q-10.5625 7.25 -24.0 7.25q-10.875 0 -16.421875 -6.28125q-5.546875 -6.296875 -5.546875 -18.25q0 -5.96875 2.984375 -21.328125q2.765625 -13.4375 2.765625 -18.5625q0 -3.40625 -2.34375 -3.40625q-2.765625 0 -7.78125 7.140625q-5.015625 7.140625 -10.25 18.875q-5.21875 11.734375 -8.421875 24.75q-2.34375 10.03125 -5.4375 13.546875q-3.09375 3.515625 -9.703125 3.515625zm245.52945 -48.640625q2.78125 0 4.375 2.5625q1.609375 2.5625 1.609375 7.046875q0 8.3125 -4.0625 13.21875q-11.9375 14.296875 -23.140625 20.0625q-11.203125 5.75 -26.984375 5.75q-11.09375 0 -20.484375 -2.765625q-9.390625 -2.78125 -22.828125 -8.328125q-12.15625 -5.328125 -23.46872 -8.734375q-10.875 19.828125 -32.625 19.828125q-11.953125 0 -19.09375 -5.4375q-7.15625 -5.4375 -7.15625 -13.96875q0 -10.453125 10.03125 -17.390625q10.03125 -6.9375 26.671875 -6.9375l2.765625 0l3.84375 -62.078125q1.28125 -21.328125 7.671875 -35.1875q6.40625 -13.875 17.703094 -23.6875q9.828125 -8.53125 22.40625 -12.90625q12.59375 -4.375 26.671875 -4.375q23.03125 0 35.40625 11.953125q12.375 11.9375 12.375 31.140625q0 13.015625 -4.703125 21.015625q-4.6875 8.0 -13.0 8.0q-5.984375 0 -9.390625 -2.875q-3.40625 -2.890625 -3.40625 -8.21875q0 -1.921875 0.84375 -7.046875q1.28125 -5.96875 1.28125 -10.65625q0 -8.96875 -5.234375 -14.1875q-5.21875 -5.234375 -15.890625 -5.234375q-18.765625 0 -29.015625 12.265625q-10.234375 12.265625 -13.0 38.515625l-4.90625 48.421875q-1.0624695 10.234375 -2.7812195 17.703125q13.6562195 2.34375 34.140594 7.46875q11.9375 2.984375 18.34375 4.265625q6.40625 1.28125 11.3125 1.28125q12.359375 0 21.21875 -4.15625q8.859375 -4.15625 16.75 -13.328125q2.5625 -3.0 5.75 -3.0zm97.9292 0.4375q2.765625 0 4.359375 2.671875q1.609375 2.65625 1.609375 6.703125q0 4.90625 -1.5 7.6875q-1.484375 2.765625 -4.6875 4.90625l-40.953125 27.515625q-8.109375 44.15625 -21.234375 69.4375q-13.109375 25.28125 -33.390625 25.28125q-10.875 0 -17.703125 -6.71875q-6.828125 -6.71875 -6.828125 -17.59375q0 -10.03125 4.578125 -20.484375q4.59375 -10.453125 17.078125 -24.0q12.484375 -13.546875 35.3125 -31.03125l0.640625 -4.921875q1.484375 -7.890625 3.40625 -22.609375q-4.265625 15.359375 -11.953125 23.359375q-7.671875 8.0 -16.203125 8.0q-9.59375 0 -15.6875 -8.84375q-6.078125 -8.859375 -6.078125 -22.078125q0 -16.0 2.125 -29.328125q2.140625 -13.34375 7.046875 -28.28125q2.140625 -6.390625 5.96875 -9.15625q3.84375 -2.78125 12.171875 -2.78125q4.6875 0 6.5 1.5q1.8125 1.484375 1.8125 4.46875q0 1.703125 -2.34375 11.515625q-2.125 7.890625 -3.40625 14.296875q-1.703125 8.75 -2.984375 16.75q-1.28125 8.0 -1.28125 13.109375q0 8.109375 4.46875 8.109375q3.203125 0 8.0 -6.390625q4.8125 -6.40625 10.25 -19.421875q5.4375 -13.015625 10.5625 -32.0q1.703125 -6.390625 5.21875 -9.15625q3.515625 -2.78125 10.5625 -2.78125q4.90625 0 6.828125 1.28125q1.921875 1.28125 1.921875 4.265625q0 5.328125 -5.546875 36.6875l-5.546875 34.34375q16.421875 -12.375 32.0 -22.609375q2.765625 -1.703125 4.90625 -1.703125zm-93.4375 123.515625q5.328125 0 11.9375 -12.375q6.609375 -12.375 13.234375 -41.171875q-16.4375 13.859375 -23.796875 25.265625q-7.359375 11.421875 -7.359375 19.953125q0 3.625 1.390625 5.96875q1.390625 2.359375 4.59375 2.359375zm167.24567 -136.10938q5.96875 0 5.96875 8.96875q0 16.84375 -26.453125 16.84375q-5.109375 0 -14.71875 -1.921875q2.78125 13.234375 4.59375 29.34375q1.8125 16.09375 1.8125 26.546875q0 23.046875 -7.46875 35.203125q-7.46875 12.15625 -19.625 12.15625q-15.359375 0 -21.875 -21.765625q-6.5 -21.75 -6.5 -65.6875q0 -40.96875 8.84375 -83.09375q8.859375 -42.140625 24.328125 -69.765625q15.46875 -27.625 34.03125 -27.625q10.015625 0 15.671875 8.96875q5.65625 8.953125 5.65625 24.09375q0 50.140625 -59.953125 109.234375q-2.125 20.90625 -2.125 36.6875q0 21.96875 1.484375 45.109375q1.5 23.15625 4.921875 23.15625q6.390625 0 6.390625 -22.1875q0 -16.640625 -2.25 -32.203125q-2.234375 -15.578125 -6.0625 -32.859375q-0.21875 -2.78125 1.796875 -7.046875q2.03125 -4.265625 5.015625 -7.453125q3.0 -3.203125 5.34375 -3.203125q4.265625 0 10.234375 0.421875q1.921875 0.21875 4.484375 0.21875q8.53125 0 18.984375 -1.5q1.703125 -0.21875 3.625 -0.421875q1.921875 -0.21875 3.84375 -0.21875zm-21.546875 -119.671875q-3.84375 0 -9.5 13.015625q-5.640625 13.0 -11.1875 34.453125q-5.546875 21.4375 -9.609375 45.328125q17.0625 -19.421875 26.234375 -40.421875q9.1875 -21.015625 9.390625 -39.359375q0 -13.015625 -5.328125 -13.015625zm87.67493 138.23438q2.78125 0 4.375 2.5625q1.59375 2.5625 1.59375 7.03125q0 7.6875 -3.625 13.234375q-5.96875 9.171875 -15.671875 14.296875q-9.703125 5.109375 -23.15625 5.109375q-20.46875 0 -31.78125 -12.265625q-11.296875 -12.265625 -11.296875 -33.171875q0 -14.71875 6.171875 -27.40625q6.1875 -12.703125 17.171875 -20.15625q11.0 -7.46875 24.859375 -7.46875q12.375 0 19.84375 7.359375q7.46875 7.359375 7.46875 19.9375q0 14.71875 -10.5625 25.28125q-10.5625 10.5625 -35.953125 16.75q5.125 9.8125 17.28125 9.8125q8.75 0 14.40625 -4.046875q5.65625 -4.0625 13.109375 -13.65625q2.5625 -3.203125 5.765625 -3.203125zm-34.984375 -37.328125q-7.890625 0 -13.328125 9.171875q-5.4375 9.171875 -5.4375 22.1875l0 0.421875q12.578125 -2.984375 19.828125 -8.953125q7.25 -5.984375 7.25 -13.875q0 -4.046875 -2.234375 -6.5q-2.234375 -2.453125 -6.078125 -2.453125z" fill-rule="nonzero"/></g></svg>