<svg version="1.1" viewBox="0.0 0.0 960.0 720.0" fill="none" stroke="none" stroke-linecap="square" stroke-miterlimit="10" xmlns:xlink="http://www.w3.org/1999/xlink" xmlns="http://www.w3.org/2000/svg"><clipPath id="p.0"><path d="m0 0l960.0 0l0 720.0l-960.0 0l0 -720.0z" clip-rule="nonzero"/></clipPath><g clip-path="url(#p.0)"><path fill="#000000" fill-opacity="0.0" d="m0 0l960.0 0l0 720.0l-960.0 0z" fill-rule="evenodd"/><path fill="#000000" d="m55.26701 39.005234l740.3293 506.77472l-782.79126 135.21552z" fill-rule="evenodd"/><path stroke="#000000" stroke-width="1.0" stroke-linejoin="round" stroke-linecap="butt" d="m55.26701 39.005234l740.3293 506.77472l-782.79126 135.21552z" fill-rule="evenodd"/><path fill="#cfe2f3" d="m90.408134 196.28658l565.77954 0l0 -145.50394l291.00787 291.00787l-291.00787 291.00787l0 -145.50394l-565.77954 0z" fill-rule="evenodd"/><path stroke="#cfe2f3" stroke-width="1.0" stroke-linejoin="round" stroke-linecap="butt" d="m90.408134 196.28658l565.77954 0l0 -145.50394l291.00787 291.00787l-291.00787 291.00787l0 -145.50394l-565.77954 0z" fill-rule="evenodd"/><path fill="#000000" fill-opacity="0.0" d="m105.772964 220.85039l747.5591 0l0 229.48033l-747.5591 0z" fill-rule="evenodd"/><path fill="#000000" d="m318.78534 321.3754q3.984375 0 5.796875 1.734375q1.828125 1.734375 1.828125 4.5q0 4.515625 -2.6875 7.984375q-2.671875 3.453125 -8.40625 3.625q-13.859375 0.359375 -24.609375 -2.078125q-12.296875 25.828125 -29.71875 42.90625q-17.42189 17.0625 -34.92189 17.0625q-18.03125 0 -26.875 -20.96875q-8.84375 -20.96875 -8.84375 -56.671875q0 -30.515625 4.34375 -54.78125q1.5625 -9.000015 4.421875 -12.20314q2.859375 -3.21875 9.78125 -3.21875q11.453125 0 11.453125 9.875015q0 1.046875 -0.359375 3.8125q-5.1875 31.203125 -5.1875 56.515625q0 26.515625 4.40625 40.296875q4.421875 13.78125 13.265625 13.78125q9.015625 0 19.578125 -12.484375q10.57814 -12.484375 19.42189 -31.375q-10.578125 -6.578125 -15.95314 -17.0625q-5.359375 -10.5 -5.359375 -24.1875q0 -13.6875 4.234375 -23.125q4.2500153 -9.45314 11.60939 -14.125015q7.375 -4.6875 16.390625 -4.6875q11.09375 0 17.59375 7.96875q6.5 7.9687653 6.5 21.843765q0 19.921875 -8.671875 43.5q9.1875 1.5625 20.96875 1.5625zm-51.125 -34.140625q0 16.984375 10.921875 25.125q6.75 -19.40625 6.75 -32.0625q0 -7.28125 -1.90625 -10.65625q-1.90625 -3.390625 -5.1875 -3.390625q-4.6875 0 -7.640625 5.46875q-2.9375 5.453125 -2.9375 15.515625zm56.331665 109.875q-10.75 0 -17.171875 -7.796875q-6.40625 -7.796875 -6.40625 -20.453125q0 -13.859375 6.40625 -26.25q6.421875 -12.390625 17.078125 -19.9375q10.671875 -7.546875 22.625 -7.546875q3.8125 0 5.109375 1.484375q1.296875 1.46875 2.171875 5.28125q3.640625 -0.6875 7.625 -0.6875q8.5000305 0 8.5000305 6.0625q0 3.640625 -2.609375 17.328125q-3.984375 19.9375 -3.984375 27.734375q0 2.609375 1.296875 4.171875q1.296875 1.546875 3.390625 1.546875q3.28125 0 7.953125 -4.234375q4.6875 -4.25 12.671875 -13.78125q2.078125 -2.4375 4.671875 -2.4375q2.25 0 3.546875 2.078125q1.3125 2.078125 1.3125 5.71875q0 6.9375 -3.296875 10.75q-7.109375 8.84375 -15.078125 14.90625q-7.96875 6.0625 -15.421875 6.0625q-5.7187805 0 -10.5000305 -3.890625q-4.765625 -3.90625 -7.1875 -10.65625q-9.015625 14.546875 -22.703125 14.546875zm6.234375 -17.5q3.8125 0 7.28125 -4.5q3.46875 -4.515625 5.03125 -11.96875l6.40625 -31.890625q-7.28125 0.171875 -13.4375 5.46875q-6.140625 5.28125 -9.78125 13.953125q-3.640625 8.65625 -3.640625 18.359375q0 5.375 2.15625 7.984375q2.171875 2.59375 5.984375 2.59375zm66.214264 17.5q-6.578125 0 -9.265625 -6.921875q-2.6875 -6.9375 -2.6875 -22.1875q0 -22.53125 6.40625 -42.8125q1.5625 -5.03125 5.109375 -7.359375q3.5625 -2.34375 9.96875 -2.34375q3.46875 0 4.859375 0.875q1.390625 0.859375 1.390625 3.28125q0 2.765625 -2.609375 12.484375q-1.734375 6.921875 -2.78125 12.125q-1.03125 5.203125 -1.71875 12.828125q5.71875 -14.90625 12.8125 -24.265625q7.109375 -9.359375 13.953125 -13.34375q6.859375 -3.984375 12.578125 -3.984375q11.265625 0 11.265625 11.265625q0 6.75 -3.8125 24.4375q-3.296875 15.078125 -3.296875 19.9375q0 6.921875 5.03125 6.921875q3.46875 0 8.234375 -4.234375q4.765625 -4.25 12.734375 -13.78125q2.078125 -2.4375 4.6875 -2.4375q2.25 0 3.546875 2.078125q1.296875 2.078125 1.296875 5.71875q0 6.9375 -3.296875 10.75q-7.453125 9.1875 -16.03125 15.078125q-8.578125 5.890625 -19.5 5.890625q-8.828125 0 -13.34375 -5.109375q-4.5 -5.109375 -4.5 -14.8125q0 -4.859375 2.421875 -17.34375q2.25 -10.90625 2.25 -15.078125q0 -2.765625 -1.90625 -2.765625q-2.25 0 -6.328125 5.8125q-4.0625 5.796875 -8.3125 15.328125q-4.25 9.53125 -6.84375 20.109375q-1.90625 8.140625 -4.421875 11.0q-2.515625 2.859375 -7.890625 2.859375zm199.50198 -39.515625q2.25 0 3.546875 2.078125q1.3125 2.078125 1.3125 5.71875q0 6.765625 -3.296875 10.75q-9.703125 11.609375 -18.8125 16.296875q-9.09375 4.671875 -21.921875 4.671875q-9.015625 0 -16.640625 -2.25q-7.625 -2.25 -18.546875 -6.75q-9.875 -4.34375 -19.0625 -7.109375q-8.84375 16.109375 -26.515625 16.109375q-9.71875 0 -15.515625 -4.40625q-5.8125 -4.421875 -5.8125 -11.359375q0 -8.5 8.140625 -14.125q8.15625 -5.640625 21.671875 -5.640625l2.25 0l3.125 -50.4375q1.046875 -17.328125 6.234375 -28.59375q5.203125 -11.265625 14.390625 -19.234375q7.96875 -6.9375 18.1875 -10.48439q10.234375 -3.5625 21.6875 -3.5625q18.71875 0 28.765625 9.718765q10.046875 9.703125 10.046875 25.296875q0 10.578125 -3.8125 17.078125q-3.8125 6.5 -10.5625 6.5q-4.859375 0 -7.640625 -2.34375q-2.765625 -2.34375 -2.765625 -6.671875q0 -1.5625 0.6875 -5.71875q1.046875 -4.859375 1.046875 -8.671875q0 -7.28125 -4.25 -11.515625q-4.25 -4.25 -12.90625 -4.25q-15.25 0 -23.578125 9.96875q-8.3125 9.953125 -10.578125 31.28125l-3.984375 39.34375q-0.859375 8.3125 -2.25 14.390625q11.09375 1.90625 27.734375 6.0625q9.703125 2.421875 14.90625 3.46875q5.203125 1.03125 9.1875 1.03125q10.046875 0 17.234375 -3.375q7.203125 -3.375 13.609375 -10.828125q2.09375 -2.4375 4.6875 -2.4375zm79.55603 0.34375q2.25 0 3.546875 2.171875q1.3125 2.171875 1.3125 5.46875q0 3.984375 -1.21875 6.234375q-1.21875 2.25 -3.8125 3.984375l-33.28125 22.359375q-6.578125 35.875 -17.25 56.40625q-10.656189 20.546875 -27.124939 20.546875q-8.828125 0 -14.375 -5.46875q-5.546875 -5.453125 -5.546875 -14.28125q0 -8.15625 3.71875 -16.65625q3.734375 -8.484375 13.875 -19.5q10.140625 -11.0 28.671814 -25.203125l0.53125 -3.984375q1.203125 -6.421875 2.765625 -18.375q-3.46875 12.46875 -9.703064 18.96875q-6.234375 6.5 -13.171875 6.5q-7.796875 0 -12.75 -7.1875q-4.9375 -7.1875 -4.9375 -17.9375q0 -13.0 1.734375 -23.828125q1.734375 -10.84375 5.71875 -22.96875q1.734375 -5.203125 4.859375 -7.453125q3.125 -2.25 9.875 -2.25q3.8125 0 5.28125 1.21875q1.484375 1.203125 1.484375 3.625q0 1.390625 -1.90625 9.359375q-1.734375 6.421875 -2.78125 11.625q-1.375 7.09375 -2.421875 13.59375q-1.03125 6.5 -1.03125 10.671875q0 6.578125 3.640625 6.578125q2.59375 0 6.484375 -5.203125q3.906189 -5.203125 8.328064 -15.765625q4.421875 -10.578125 8.578125 -26.0q1.390625 -5.203125 4.25 -7.453125q2.859375 -2.25 8.578125 -2.25q3.984375 0 5.546875 1.046875q1.5625 1.03125 1.5625 3.453125q0 4.328125 -4.515625 29.8125l-4.5 27.90625q13.34375 -10.046875 26.0 -18.375q2.25 -1.390625 3.984375 -1.390625zm-75.921814 100.359375q4.34375 0 9.703125 -10.046875q5.375 -10.046875 10.749939 -33.453125q-13.343689 11.265625 -19.328064 20.53125q-5.96875 9.28125 -5.96875 16.21875q0 2.9375 1.125 4.84375q1.125 1.90625 3.71875 1.90625zm135.90125 -110.578125q4.84375 0 4.84375 7.28125q0 13.6875 -21.484375 13.6875q-4.171875 0 -11.96875 -1.5625q2.25 10.75 3.71875 23.84375q1.484375 13.078125 1.484375 21.578125q0 18.71875 -6.0625 28.59375q-6.0625 9.875 -15.953125 9.875q-12.46875 0 -17.765625 -17.6875q-5.28125 -17.671875 -5.28125 -53.375q0 -33.28125 7.1875 -67.5q7.203125 -34.234375 19.765625 -56.67189q12.5625 -22.453125 27.640625 -22.453125q8.15625 0 12.734375 7.28125q4.59375 7.265625 4.59375 19.57814q0 40.734375 -48.703125 88.75q-1.734375 16.984375 -1.734375 29.8125q0 17.84375 1.21875 36.640625q1.21875 18.8125 3.984375 18.8125q5.203125 0 5.203125 -18.015625q0 -13.53125 -1.828125 -26.171875q-1.8125 -12.65625 -4.9375 -26.703125q-0.171875 -2.25 1.46875 -5.71875q1.65625 -3.46875 4.078125 -6.0625q2.4375 -2.59375 4.34375 -2.59375q3.453125 0 8.3125 0.34375q1.5625 0.171875 3.640625 0.171875q6.9375 0 15.421875 -1.21875q1.390625 -0.171875 2.953125 -0.34375q1.5625 -0.171875 3.125 -0.171875zm-17.515625 -97.23439q-3.109375 0 -7.703125 10.57814q-4.59375 10.5625 -9.109375 27.984375q-4.5 17.421875 -7.796875 36.828125q13.859375 -15.765625 21.3125 -32.84375q7.453125 -17.078125 7.640625 -31.984375q0 -10.562515 -4.34375 -10.562515zm71.24432 112.312515q2.25 0 3.546875 2.078125q1.296875 2.078125 1.296875 5.71875q0 6.25 -2.9375 10.75q-4.859375 7.453125 -12.75 11.609375q-7.875 4.15625 -18.796875 4.15625q-16.640625 0 -25.828125 -9.953125q-9.1875 -9.96875 -9.1875 -26.953125q0 -11.96875 5.015625 -22.28125q5.03125 -10.3125 13.953125 -16.375q8.9375 -6.0625 20.203125 -6.0625q10.046875 0 16.109375 5.984375q6.078125 5.96875 6.078125 16.203125q0 11.953125 -8.578125 20.53125q-8.578125 8.578125 -29.203125 13.609375q4.15625 7.96875 14.03125 7.96875q7.109375 0 11.703125 -3.28125q4.59375 -3.296875 10.65625 -11.109375q2.078125 -2.59375 4.6875 -2.59375zm-28.421875 -30.328125q-6.421875 0 -10.84375 7.453125q-4.421875 7.453125 -4.421875 18.015625l0 0.359375q10.234375 -2.4375 16.125 -7.28125q5.890625 -4.859375 5.890625 -11.265625q0 -3.296875 -1.828125 -5.28125q-1.8125 -2.0 -4.921875 -2.0z" fill-rule="nonzero"/></g></svg>